<svg width="73" height="71" viewBox="0 0 73 71" fill="none" xmlns="http://www.w3.org/2000/svg">
<mask id="path-1-inside-1_616_125" fill="white">
<path d="M36.5 0.5C16.3505 0.5 0 16.1785 0 35.5C0 54.8215 16.3505 70.5 36.5 70.5C56.6495 70.5 73 54.8215 73 35.5C73 16.1785 56.6495 0.5 36.5 0.5ZM36.5 1.95833C55.8268 1.95833 71.4792 16.966 71.4792 35.5C71.4792 54.034 55.8268 69.0417 36.5 69.0417C17.1733 69.0417 1.52083 54.034 1.52083 35.5C1.52083 16.966 17.1733 1.95833 36.5 1.95833ZM16.7292 22.375C15.0563 22.375 13.6875 23.6875 13.6875 25.2917V34.0417C13.6875 35.6458 15.0563 36.9583 16.7292 36.9583H18.25V40.6042C18.2491 40.7481 18.2927 40.8891 18.3752 41.0094C18.4578 41.1296 18.5756 41.2237 18.7138 41.2799C18.8521 41.336 19.0046 41.3517 19.1521 41.3249C19.2996 41.298 19.4355 41.2299 19.5427 41.1292L23.9988 36.9583H31.9375C33.6104 36.9583 34.9792 35.6458 34.9792 34.0417V25.2917C34.9792 23.6875 33.6104 22.375 31.9375 22.375H16.7292ZM16.7292 23.8333H31.9375C32.7937 23.8333 33.4583 24.4706 33.4583 25.2917V34.0417C33.4583 34.8627 32.7937 35.5 31.9375 35.5H23.6855C23.488 35.5012 23.2987 35.576 23.1577 35.7085L19.7708 38.8746V36.2292C19.7708 36.0358 19.6907 35.8503 19.5481 35.7136C19.4055 35.5768 19.2121 35.5 19.0104 35.5H16.7292C15.8729 35.5 15.2083 34.8627 15.2083 34.0417V25.2917C15.2083 24.4706 15.8729 23.8333 16.7292 23.8333ZM42.556 24.5654C42.4048 24.5668 42.2576 24.6114 42.133 24.6935C42.0084 24.7755 41.9121 24.8913 41.8565 25.0261C41.8008 25.1608 41.7883 25.3084 41.8205 25.45C41.8527 25.5916 41.9282 25.7208 42.0374 25.821L43.0198 26.7529H37.2711C37.2457 26.7517 37.2204 26.7517 37.195 26.7529C37.0952 26.7577 36.9973 26.7813 36.9069 26.8224C36.8166 26.8634 36.7355 26.9212 36.6685 26.9923C36.6014 27.0634 36.5496 27.1464 36.516 27.2367C36.4824 27.327 36.4676 27.4228 36.4726 27.5185C36.4776 27.6143 36.5022 27.7082 36.5451 27.7948C36.5879 27.8814 36.6481 27.9591 36.7222 28.0235C36.7964 28.0878 36.883 28.1375 36.9772 28.1697C37.0713 28.2019 37.1712 28.216 37.2711 28.2113H43.0198L42.0374 29.1431C41.9573 29.208 41.8921 29.288 41.8458 29.3781C41.7995 29.4683 41.7732 29.5666 41.7684 29.667C41.7637 29.7673 41.7806 29.8676 41.8181 29.9614C41.8556 30.0552 41.913 30.1405 41.9866 30.2121C42.0601 30.2836 42.1483 30.3398 42.2456 30.3772C42.3429 30.4145 42.4472 30.4321 42.5519 30.429C42.6566 30.4258 42.7595 30.4019 42.8542 30.3589C42.9488 30.3158 43.0332 30.2544 43.1019 30.1785L45.4106 27.9998C45.4823 27.932 45.5393 27.8511 45.5781 27.762C45.617 27.6729 45.637 27.5772 45.637 27.4806C45.637 27.384 45.617 27.2884 45.5781 27.1992C45.5393 27.1101 45.4823 27.0293 45.4106 26.9615L43.1035 24.7812C43.0319 24.712 42.9466 24.6572 42.8525 24.6202C42.7585 24.5831 42.6576 24.5645 42.556 24.5654ZM21.2917 28.9375C21.09 28.9375 20.8966 29.0143 20.754 29.1511C20.6114 29.2878 20.5312 29.4733 20.5312 29.6667C20.5312 29.8601 20.6114 30.0455 20.754 30.1823C20.8966 30.319 21.09 30.3958 21.2917 30.3958C21.4933 30.3958 21.6868 30.319 21.8294 30.1823C21.972 30.0455 22.0521 29.8601 22.0521 29.6667C22.0521 29.4733 21.972 29.2878 21.8294 29.1511C21.6868 29.0143 21.4933 28.9375 21.2917 28.9375ZM24.3333 28.9375C24.1317 28.9375 23.9382 29.0143 23.7956 29.1511C23.653 29.2878 23.5729 29.4733 23.5729 29.6667C23.5729 29.8601 23.653 30.0455 23.7956 30.1823C23.9382 30.319 24.1317 30.3958 24.3333 30.3958C24.535 30.3958 24.7284 30.319 24.871 30.1823C25.0136 30.0455 25.0938 29.8601 25.0938 29.6667C25.0938 29.4733 25.0136 29.2878 24.871 29.1511C24.7284 29.0143 24.535 28.9375 24.3333 28.9375ZM27.375 28.9375C27.1733 28.9375 26.9799 29.0143 26.8373 29.1511C26.6947 29.2878 26.6146 29.4733 26.6146 29.6667C26.6146 29.8601 26.6947 30.0455 26.8373 30.1823C26.9799 30.319 27.1733 30.3958 27.375 30.3958C27.5767 30.3958 27.7701 30.319 27.9127 30.1823C28.0553 30.0455 28.1354 29.8601 28.1354 29.6667C28.1354 29.4733 28.0553 29.2878 27.9127 29.1511C27.7701 29.0143 27.5767 28.9375 27.375 28.9375ZM41.0625 32.5833C39.3896 32.5833 38.0208 33.8958 38.0208 35.5V44.25C38.0208 45.8542 39.3896 47.1667 41.0625 47.1667H49.0013L53.4573 51.3375C53.5645 51.4383 53.7004 51.5064 53.8479 51.5332C53.9954 51.56 54.1479 51.5444 54.2862 51.4882C54.4244 51.4321 54.5422 51.3379 54.6248 51.2177C54.7073 51.0974 54.7509 50.9565 54.75 50.8125V47.1667H56.2708C57.9438 47.1667 59.3125 45.8542 59.3125 44.25V35.5C59.3125 33.8958 57.9438 32.5833 56.2708 32.5833H41.0625ZM41.0625 34.0417H56.2708C57.1271 34.0417 57.7917 34.679 57.7917 35.5V44.25C57.7917 45.071 57.1271 45.7083 56.2708 45.7083H53.9896C53.7879 45.7083 53.5945 45.7852 53.4519 45.9219C53.3093 46.0586 53.2292 46.2441 53.2292 46.4375V49.0829L49.8423 45.9169C49.7013 45.7843 49.512 45.7095 49.3145 45.7083H41.0625C40.2063 45.7083 39.5417 45.071 39.5417 44.25V35.5C39.5417 34.679 40.2063 34.0417 41.0625 34.0417ZM30.4258 39.1458C30.2288 39.1501 30.0413 39.2275 29.9026 39.3617L27.5955 41.5419C27.5238 41.6097 27.4668 41.6905 27.428 41.7797C27.3891 41.8688 27.3691 41.9644 27.3691 42.061C27.3691 42.1576 27.3891 42.2533 27.428 42.3424C27.4668 42.4315 27.5238 42.5124 27.5955 42.5802L29.9026 44.7604C29.9721 44.8338 30.0565 44.8929 30.1506 44.934C30.2447 44.9751 30.3466 44.9973 30.45 44.9994C30.5534 45.0014 30.6561 44.9832 30.7519 44.9459C30.8477 44.9086 30.9346 44.8529 31.0072 44.7823C31.0798 44.7117 31.1366 44.6276 31.1742 44.5352C31.2118 44.4429 31.2293 44.3441 31.2257 44.245C31.2221 44.1459 31.1974 44.0485 31.1532 43.9589C31.1091 43.8692 31.0463 43.7891 30.9687 43.7235L29.9802 42.7887H35.7335C35.9352 42.7887 36.1286 42.7119 36.2712 42.5752C36.4138 42.4384 36.4939 42.253 36.4939 42.0596C36.4939 41.8662 36.4138 41.6807 36.2712 41.544C36.1286 41.4072 35.9352 41.3304 35.7335 41.3304H29.9848L30.9687 40.3985C31.0783 40.2967 31.1534 40.1656 31.1843 40.0223C31.2151 39.879 31.2003 39.7302 31.1418 39.595C31.0832 39.4599 30.9836 39.3448 30.8559 39.2647C30.7282 39.1846 30.5784 39.1432 30.4258 39.1458ZM45.625 39.1458C45.4233 39.1458 45.2299 39.2227 45.0873 39.3594C44.9447 39.4961 44.8646 39.6816 44.8646 39.875C44.8646 40.0684 44.9447 40.2539 45.0873 40.3906C45.2299 40.5273 45.4233 40.6042 45.625 40.6042C45.8267 40.6042 46.0201 40.5273 46.1627 40.3906C46.3053 40.2539 46.3854 40.0684 46.3854 39.875C46.3854 39.6816 46.3053 39.4961 46.1627 39.3594C46.0201 39.2227 45.8267 39.1458 45.625 39.1458ZM48.6667 39.1458C48.465 39.1458 48.2716 39.2227 48.129 39.3594C47.9864 39.4961 47.9062 39.6816 47.9062 39.875C47.9062 40.0684 47.9864 40.2539 48.129 40.3906C48.2716 40.5273 48.465 40.6042 48.6667 40.6042C48.8683 40.6042 49.0618 40.5273 49.2044 40.3906C49.347 40.2539 49.4271 40.0684 49.4271 39.875C49.4271 39.6816 49.347 39.4961 49.2044 39.3594C49.0618 39.2227 48.8683 39.1458 48.6667 39.1458ZM51.7083 39.1458C51.5067 39.1458 51.3132 39.2227 51.1706 39.3594C51.028 39.4961 50.9479 39.6816 50.9479 39.875C50.9479 40.0684 51.028 40.2539 51.1706 40.3906C51.3132 40.5273 51.5067 40.6042 51.7083 40.6042C51.91 40.6042 52.1034 40.5273 52.246 40.3906C52.3886 40.2539 52.4688 40.0684 52.4688 39.875C52.4688 39.6816 52.3886 39.4961 52.246 39.3594C52.1034 39.2227 51.91 39.1458 51.7083 39.1458Z"/>
</mask>
<path d="M36.5 0.5C16.3505 0.5 0 16.1785 0 35.5C0 54.8215 16.3505 70.5 36.5 70.5C56.6495 70.5 73 54.8215 73 35.5C73 16.1785 56.6495 0.5 36.5 0.5ZM36.5 1.95833C55.8268 1.95833 71.4792 16.966 71.4792 35.5C71.4792 54.034 55.8268 69.0417 36.5 69.0417C17.1733 69.0417 1.52083 54.034 1.52083 35.5C1.52083 16.966 17.1733 1.95833 36.5 1.95833ZM16.7292 22.375C15.0563 22.375 13.6875 23.6875 13.6875 25.2917V34.0417C13.6875 35.6458 15.0563 36.9583 16.7292 36.9583H18.25V40.6042C18.2491 40.7481 18.2927 40.8891 18.3752 41.0094C18.4578 41.1296 18.5756 41.2237 18.7138 41.2799C18.8521 41.336 19.0046 41.3517 19.1521 41.3249C19.2996 41.298 19.4355 41.2299 19.5427 41.1292L23.9988 36.9583H31.9375C33.6104 36.9583 34.9792 35.6458 34.9792 34.0417V25.2917C34.9792 23.6875 33.6104 22.375 31.9375 22.375H16.7292ZM16.7292 23.8333H31.9375C32.7937 23.8333 33.4583 24.4706 33.4583 25.2917V34.0417C33.4583 34.8627 32.7937 35.5 31.9375 35.5H23.6855C23.488 35.5012 23.2987 35.576 23.1577 35.7085L19.7708 38.8746V36.2292C19.7708 36.0358 19.6907 35.8503 19.5481 35.7136C19.4055 35.5768 19.2121 35.5 19.0104 35.5H16.7292C15.8729 35.5 15.2083 34.8627 15.2083 34.0417V25.2917C15.2083 24.4706 15.8729 23.8333 16.7292 23.8333ZM42.556 24.5654C42.4048 24.5668 42.2576 24.6114 42.133 24.6935C42.0084 24.7755 41.9121 24.8913 41.8565 25.0261C41.8008 25.1608 41.7883 25.3084 41.8205 25.45C41.8527 25.5916 41.9282 25.7208 42.0374 25.821L43.0198 26.7529H37.2711C37.2457 26.7517 37.2204 26.7517 37.195 26.7529C37.0952 26.7577 36.9973 26.7813 36.9069 26.8224C36.8166 26.8634 36.7355 26.9212 36.6685 26.9923C36.6014 27.0634 36.5496 27.1464 36.516 27.2367C36.4824 27.327 36.4676 27.4228 36.4726 27.5185C36.4776 27.6143 36.5022 27.7082 36.5451 27.7948C36.5879 27.8814 36.6481 27.9591 36.7222 28.0235C36.7964 28.0878 36.883 28.1375 36.9772 28.1697C37.0713 28.2019 37.1712 28.216 37.2711 28.2113H43.0198L42.0374 29.1431C41.9573 29.208 41.8921 29.288 41.8458 29.3781C41.7995 29.4683 41.7732 29.5666 41.7684 29.667C41.7637 29.7673 41.7806 29.8676 41.8181 29.9614C41.8556 30.0552 41.913 30.1405 41.9866 30.2121C42.0601 30.2836 42.1483 30.3398 42.2456 30.3772C42.3429 30.4145 42.4472 30.4321 42.5519 30.429C42.6566 30.4258 42.7595 30.4019 42.8542 30.3589C42.9488 30.3158 43.0332 30.2544 43.1019 30.1785L45.4106 27.9998C45.4823 27.932 45.5393 27.8511 45.5781 27.762C45.617 27.6729 45.637 27.5772 45.637 27.4806C45.637 27.384 45.617 27.2884 45.5781 27.1992C45.5393 27.1101 45.4823 27.0293 45.4106 26.9615L43.1035 24.7812C43.0319 24.712 42.9466 24.6572 42.8525 24.6202C42.7585 24.5831 42.6576 24.5645 42.556 24.5654ZM21.2917 28.9375C21.09 28.9375 20.8966 29.0143 20.754 29.1511C20.6114 29.2878 20.5312 29.4733 20.5312 29.6667C20.5312 29.8601 20.6114 30.0455 20.754 30.1823C20.8966 30.319 21.09 30.3958 21.2917 30.3958C21.4933 30.3958 21.6868 30.319 21.8294 30.1823C21.972 30.0455 22.0521 29.8601 22.0521 29.6667C22.0521 29.4733 21.972 29.2878 21.8294 29.1511C21.6868 29.0143 21.4933 28.9375 21.2917 28.9375ZM24.3333 28.9375C24.1317 28.9375 23.9382 29.0143 23.7956 29.1511C23.653 29.2878 23.5729 29.4733 23.5729 29.6667C23.5729 29.8601 23.653 30.0455 23.7956 30.1823C23.9382 30.319 24.1317 30.3958 24.3333 30.3958C24.535 30.3958 24.7284 30.319 24.871 30.1823C25.0136 30.0455 25.0938 29.8601 25.0938 29.6667C25.0938 29.4733 25.0136 29.2878 24.871 29.1511C24.7284 29.0143 24.535 28.9375 24.3333 28.9375ZM27.375 28.9375C27.1733 28.9375 26.9799 29.0143 26.8373 29.1511C26.6947 29.2878 26.6146 29.4733 26.6146 29.6667C26.6146 29.8601 26.6947 30.0455 26.8373 30.1823C26.9799 30.319 27.1733 30.3958 27.375 30.3958C27.5767 30.3958 27.7701 30.319 27.9127 30.1823C28.0553 30.0455 28.1354 29.8601 28.1354 29.6667C28.1354 29.4733 28.0553 29.2878 27.9127 29.1511C27.7701 29.0143 27.5767 28.9375 27.375 28.9375ZM41.0625 32.5833C39.3896 32.5833 38.0208 33.8958 38.0208 35.5V44.25C38.0208 45.8542 39.3896 47.1667 41.0625 47.1667H49.0013L53.4573 51.3375C53.5645 51.4383 53.7004 51.5064 53.8479 51.5332C53.9954 51.56 54.1479 51.5444 54.2862 51.4882C54.4244 51.4321 54.5422 51.3379 54.6248 51.2177C54.7073 51.0974 54.7509 50.9565 54.75 50.8125V47.1667H56.2708C57.9438 47.1667 59.3125 45.8542 59.3125 44.25V35.5C59.3125 33.8958 57.9438 32.5833 56.2708 32.5833H41.0625ZM41.0625 34.0417H56.2708C57.1271 34.0417 57.7917 34.679 57.7917 35.5V44.25C57.7917 45.071 57.1271 45.7083 56.2708 45.7083H53.9896C53.7879 45.7083 53.5945 45.7852 53.4519 45.9219C53.3093 46.0586 53.2292 46.2441 53.2292 46.4375V49.0829L49.8423 45.9169C49.7013 45.7843 49.512 45.7095 49.3145 45.7083H41.0625C40.2063 45.7083 39.5417 45.071 39.5417 44.25V35.5C39.5417 34.679 40.2063 34.0417 41.0625 34.0417ZM30.4258 39.1458C30.2288 39.1501 30.0413 39.2275 29.9026 39.3617L27.5955 41.5419C27.5238 41.6097 27.4668 41.6905 27.428 41.7797C27.3891 41.8688 27.3691 41.9644 27.3691 42.061C27.3691 42.1576 27.3891 42.2533 27.428 42.3424C27.4668 42.4315 27.5238 42.5124 27.5955 42.5802L29.9026 44.7604C29.9721 44.8338 30.0565 44.8929 30.1506 44.934C30.2447 44.9751 30.3466 44.9973 30.45 44.9994C30.5534 45.0014 30.6561 44.9832 30.7519 44.9459C30.8477 44.9086 30.9346 44.8529 31.0072 44.7823C31.0798 44.7117 31.1366 44.6276 31.1742 44.5352C31.2118 44.4429 31.2293 44.3441 31.2257 44.245C31.2221 44.1459 31.1974 44.0485 31.1532 43.9589C31.1091 43.8692 31.0463 43.7891 30.9687 43.7235L29.9802 42.7887H35.7335C35.9352 42.7887 36.1286 42.7119 36.2712 42.5752C36.4138 42.4384 36.4939 42.253 36.4939 42.0596C36.4939 41.8662 36.4138 41.6807 36.2712 41.544C36.1286 41.4072 35.9352 41.3304 35.7335 41.3304H29.9848L30.9687 40.3985C31.0783 40.2967 31.1534 40.1656 31.1843 40.0223C31.2151 39.879 31.2003 39.7302 31.1418 39.595C31.0832 39.4599 30.9836 39.3448 30.8559 39.2647C30.7282 39.1846 30.5784 39.1432 30.4258 39.1458ZM45.625 39.1458C45.4233 39.1458 45.2299 39.2227 45.0873 39.3594C44.9447 39.4961 44.8646 39.6816 44.8646 39.875C44.8646 40.0684 44.9447 40.2539 45.0873 40.3906C45.2299 40.5273 45.4233 40.6042 45.625 40.6042C45.8267 40.6042 46.0201 40.5273 46.1627 40.3906C46.3053 40.2539 46.3854 40.0684 46.3854 39.875C46.3854 39.6816 46.3053 39.4961 46.1627 39.3594C46.0201 39.2227 45.8267 39.1458 45.625 39.1458ZM48.6667 39.1458C48.465 39.1458 48.2716 39.2227 48.129 39.3594C47.9864 39.4961 47.9062 39.6816 47.9062 39.875C47.9062 40.0684 47.9864 40.2539 48.129 40.3906C48.2716 40.5273 48.465 40.6042 48.6667 40.6042C48.8683 40.6042 49.0618 40.5273 49.2044 40.3906C49.347 40.2539 49.4271 40.0684 49.4271 39.875C49.4271 39.6816 49.347 39.4961 49.2044 39.3594C49.0618 39.2227 48.8683 39.1458 48.6667 39.1458ZM51.7083 39.1458C51.5067 39.1458 51.3132 39.2227 51.1706 39.3594C51.028 39.4961 50.9479 39.6816 50.9479 39.875C50.9479 40.0684 51.028 40.2539 51.1706 40.3906C51.3132 40.5273 51.5067 40.6042 51.7083 40.6042C51.91 40.6042 52.1034 40.5273 52.246 40.3906C52.3886 40.2539 52.4688 40.0684 52.4688 39.875C52.4688 39.6816 52.3886 39.4961 52.246 39.3594C52.1034 39.2227 51.91 39.1458 51.7083 39.1458Z" fill="#EEEEEE" stroke="white" stroke-width="52" mask="url(#path-1-inside-1_616_125)"/>
</svg>
